<svg id="Capa_1" data-name="Capa 1" xmlns="http://www.w3.org/2000/svg" viewBox="0 0 38.08 45"><defs><style>.cls-1{fill:#2cafcd;}</style></defs><path class="cls-1" d="M38.07,25.82c0,4.88,0,9.76,0,14.64A4.32,4.32,0,0,1,33.53,45H8a4.33,4.33,0,0,1-4.54-4.54c0-.49,0-1,0-1.48a.86.86,0,1,1,1.72,0c0,.55,0,1.11,0,1.66a2.58,2.58,0,0,0,2.58,2.61q13,0,26,0a2.57,2.57,0,0,0,2.61-2.58q0-14.87,0-29.73A2.7,2.7,0,0,0,35.5,9L29.07,2.6a2.89,2.89,0,0,0-2.17-.87H8a2.62,2.62,0,0,0-2.8,2.82V11c0,.71-.32,1.12-.86,1.12s-.87-.4-.87-1.11c0-2.22,0-4.45,0-6.67A4.29,4.29,0,0,1,7.78,0H27.13a4.16,4.16,0,0,1,3.05,1.27q3.28,3.31,6.6,6.6A4.28,4.28,0,0,1,38.07,11C38.08,16,38.07,20.89,38.07,25.82Z"/><path class="cls-1" d="M2.9,25.11a7.41,7.41,0,0,1,1.17.77,3.42,3.42,0,0,1,1.12,2.58c0,1.42,0,2.84,0,4.27a1.74,1.74,0,0,0,1.89,1.88,7.12,7.12,0,0,1,.8,0,.81.81,0,0,1,.76.83.82.82,0,0,1-.78.88c-3.16.36-4.53-1.83-4.42-3.8.08-1.29,0-2.6,0-3.89A1.84,1.84,0,0,0,2.3,26.79c-.58-.28-1.14-.57-1.71-.86a.89.89,0,0,1,0-1.67c.6-.31,1.21-.6,1.82-.91a1.8,1.8,0,0,0,1-1.74c0-1.38,0-2.76,0-4.14a3.44,3.44,0,0,1,3.6-3.62c.24,0,.49,0,.74,0a.85.85,0,0,1,.84.88.83.83,0,0,1-.82.84c-.29,0-.58,0-.87,0a1.73,1.73,0,0,0-1.76,1.76c0,1.38,0,2.76,0,4.14a3.48,3.48,0,0,1-2,3.42A3,3,0,0,0,2.9,25.11Z"/><path class="cls-1" d="M24.8,25.07A3.76,3.76,0,0,1,22.49,21c0-.45,0-.9,0-1.35v-2a1.79,1.79,0,0,0-2.06-2,4.26,4.26,0,0,1-.62,0,.82.82,0,0,1-.77-.88.8.8,0,0,1,.76-.83c3.14-.37,4.54,1.79,4.43,3.78-.07,1.32,0,2.64,0,3.95a1.83,1.83,0,0,0,1.1,1.78l1.43.72c.45.22.94.4.93,1s-.51.79-1,1l-1.43.72a1.79,1.79,0,0,0-1.06,1.73c0,1.42,0,2.84,0,4.26a3.46,3.46,0,0,1-3.53,3.52,8.26,8.26,0,0,1-.86,0,.81.81,0,0,1-.79-.87.82.82,0,0,1,.8-.85c.16,0,.33,0,.5,0,1.54,0,2.15-.61,2.15-2.18,0-1.21,0-2.43,0-3.64a3.55,3.55,0,0,1,2-3.52A2,2,0,0,0,24.8,25.07Z"/><path d="M26,6.62c0-.72,0-1.45,0-2.17s.34-1,.86-1,.86.36.87,1c0,1.32,0,2.64,0,4a1.79,1.79,0,0,0,2,2h3.84c.71,0,1.1.32,1.09.88s-.38.84-1.06.85c-1.41,0-2.81,0-4.21,0A3.43,3.43,0,0,1,26,8.72C26,8,26,7.32,26,6.62Z"/><path d="M10.38,25.13A1.73,1.73,0,1,1,8.7,23.37,1.7,1.7,0,0,1,10.38,25.13Z"/><path d="M12.11,25.06a1.73,1.73,0,1,1,1.68,1.77A1.7,1.7,0,0,1,12.11,25.06Z"/><path d="M20.77,25.12a1.74,1.74,0,1,1-1.7-1.75A1.71,1.71,0,0,1,20.77,25.12Z"/></svg>